<svg width="20" height="20" viewBox="0 0 20 20" fill="none" xmlns="http://www.w3.org/2000/svg">
<g clip-path="url(#clip0_191_415)">
<path d="M9.98877 0.109863C4.53276 0.109863 0.109863 4.53276 0.109863 9.98877C0.109863 15.4448 4.53276 19.8677 9.98877 19.8677C15.4448 19.8677 19.8677 15.4448 19.8677 9.98877C19.8677 4.53276 15.4448 0.109863 9.98877 0.109863ZM9.98877 4.94109C11.9424 4.94109 13.532 6.53071 13.532 8.48432C13.532 10.4381 11.9424 12.0276 9.98877 12.0276C8.03494 12.0276 6.44554 10.4381 6.44554 8.48432C6.44554 6.53071 8.03494 4.94109 9.98877 4.94109ZM9.98877 18.516C7.54429 18.516 5.35161 17.4436 3.85133 15.7449C4.54879 14.4826 5.6392 13.4451 6.93575 12.8161C7.37679 12.6023 7.89159 12.6058 8.34843 12.8251C8.86279 13.0723 9.4147 13.1974 9.98899 13.1974C10.5631 13.1974 11.1152 13.0721 11.6295 12.8251C12.0868 12.6056 12.6016 12.6023 13.0422 12.8161C14.3388 13.4449 15.429 14.4826 16.1264 15.7449C14.6259 17.4434 12.4333 18.516 9.98877 18.516Z" fill="#000117"/>
</g>
<defs>
<clipPath id="clip0_191_415">
<rect width="20" height="20" fill="white"/>
</clipPath>
</defs>
</svg>
