<svg width="15" height="15" viewBox="0 0 15 15" fill="none" xmlns="http://www.w3.org/2000/svg">
<g clip-path="url(#clip0_191_437)">
<path d="M14.9008 7.4917C14.9008 3.40628 11.577 0.0825195 7.49158 0.0825195C3.40616 0.0825195 0.0823975 3.40628 0.0823975 7.4917C0.0823975 11.5771 3.40616 14.9009 7.49158 14.9009C11.577 14.9009 14.9008 11.5771 14.9008 7.4917ZM1.23494 7.4917C1.23494 4.04182 4.0417 1.23506 7.49158 1.23506C10.9415 1.23506 13.7482 4.04182 13.7482 7.4917C13.7482 10.9416 10.9415 13.7483 7.49158 13.7483C4.0417 13.7483 1.23494 10.9416 1.23494 7.4917Z" fill="#000117"/>
<path d="M10.8597 6.42519C10.8597 6.27766 10.8033 6.13014 10.6909 6.01768C10.466 5.79261 10.101 5.79261 9.87604 6.01768L7.4916 8.40212L5.10717 6.01768C4.88226 5.79261 4.51723 5.79261 4.29216 6.01768C4.06725 6.24276 4.06741 6.60762 4.29216 6.83269L7.08393 9.62431C7.30884 9.84938 7.67387 9.84938 7.89878 9.62431L10.6907 6.83269C10.8033 6.72024 10.8597 6.57271 10.8597 6.42519Z" fill="#000117"/>
</g>
<defs>
<clipPath id="clip0_191_437">
<rect width="15" height="15" fill="white"/>
</clipPath>
</defs>
</svg>
