<svg width="12" height="12" viewBox="0 0 12 12" fill="none" xmlns="http://www.w3.org/2000/svg">
<g clip-path="url(#clip0_69_56)">
<path d="M8.58217 2.03525H3.40443C3.18618 2.03525 3.00928 1.85835 3.00928 1.64009C3.00928 1.42183 3.18618 1.24493 3.40443 1.24493H8.58217C8.80042 1.24493 8.97732 1.42183 8.97732 1.64009C8.97732 1.85835 8.80056 2.03525 8.58217 2.03525Z" fill="#6B6B6B"/>
<path d="M11.5254 4.25946H0.461074C0.242816 4.25946 0.065918 4.08256 0.065918 3.8643V2.69596C0.065918 1.8959 0.716872 1.24494 1.51693 1.24494H2.35967C2.57793 1.24494 2.75482 1.42184 2.75482 1.6401C2.75482 1.85836 2.57793 2.03526 2.35967 2.03526H1.51693C1.1526 2.03526 0.85623 2.33162 0.85623 2.69596V3.46915H11.1303V2.69596C11.1303 2.33162 10.8339 2.03512 10.4695 2.03512H9.62686C9.4086 2.03512 9.2317 1.85823 9.2317 1.63997C9.2317 1.42171 9.4086 1.24481 9.62686 1.24481H10.4695C11.2697 1.24494 11.9206 1.8959 11.9206 2.69596V3.8643C11.9206 4.08256 11.7437 4.25946 11.5254 4.25946Z" fill="#6B6B6B"/>
<path d="M10.4695 11.8051H1.51693C0.716872 11.8051 0.065918 11.1541 0.065918 10.3539V3.86427C0.065918 3.64601 0.242816 3.46912 0.461074 3.46912H11.5254C11.7437 3.46912 11.9206 3.64601 11.9206 3.86427V10.3539C11.9206 11.1541 11.2697 11.8051 10.4695 11.8051ZM0.85623 4.25943V10.3539C0.85623 10.7184 1.1526 11.0148 1.51693 11.0148H10.4695C10.8339 11.0148 11.1303 10.7184 11.1303 10.3539V4.25943H0.85623Z" fill="#6B6B6B"/>
<path d="M3.19566 6.8472H2.56841C2.37848 6.8472 2.22437 6.69322 2.22437 6.50315V5.87591C2.22437 5.68597 2.37834 5.53186 2.56841 5.53186H3.19566C3.3856 5.53186 3.53971 5.68584 3.53971 5.87591V6.50315C3.53958 6.69309 3.3856 6.8472 3.19566 6.8472Z" fill="#6B6B6B"/>
<path d="M6.30699 6.8472H5.67974C5.4898 6.8472 5.33569 6.69322 5.33569 6.50315V5.87591C5.33569 5.68597 5.48967 5.53186 5.67974 5.53186H6.30699C6.49693 5.53186 6.65104 5.68584 6.65104 5.87591V6.50315C6.65104 6.69309 6.49706 6.8472 6.30699 6.8472Z" fill="#6B6B6B"/>
<path d="M9.41807 6.8472H8.79083C8.60089 6.8472 8.44678 6.69322 8.44678 6.50315V5.87591C8.44678 5.68597 8.60076 5.53186 8.79083 5.53186H9.41807C9.60801 5.53186 9.76212 5.68584 9.76212 5.87591V6.50315C9.76212 6.69309 9.60814 6.8472 9.41807 6.8472Z" fill="#6B6B6B"/>
<path d="M3.19566 9.55259H2.56841C2.37848 9.55259 2.22437 9.39861 2.22437 9.20854V8.58129C2.22437 8.39136 2.37834 8.23724 2.56841 8.23724H3.19566C3.3856 8.23724 3.53971 8.39122 3.53971 8.58129V9.20854C3.53958 9.39861 3.3856 9.55259 3.19566 9.55259Z" fill="#6B6B6B"/>
<path d="M6.30699 9.55259H5.67974C5.4898 9.55259 5.33569 9.39861 5.33569 9.20854V8.58129C5.33569 8.39136 5.48967 8.23724 5.67974 8.23724H6.30699C6.49693 8.23724 6.65104 8.39122 6.65104 8.58129V9.20854C6.65104 9.39861 6.49706 9.55259 6.30699 9.55259Z" fill="#6B6B6B"/>
<path d="M9.41807 9.55259H8.79083C8.60089 9.55259 8.44678 9.39861 8.44678 9.20854V8.58129C8.44678 8.39136 8.60076 8.23724 8.79083 8.23724H9.41807C9.60801 8.23724 9.76212 8.39122 9.76212 8.58129V9.20854C9.76212 9.39861 9.60814 9.55259 9.41807 9.55259Z" fill="#6B6B6B"/>
<path d="M3.06036 2.70359H2.70367C2.51373 2.70359 2.35962 2.54961 2.35962 2.35954V0.920648C2.35962 0.73071 2.5136 0.576599 2.70367 0.576599H3.06036C3.2503 0.576599 3.40441 0.730578 3.40441 0.920648V2.35954C3.40428 2.54948 3.2503 2.70359 3.06036 2.70359Z" fill="#6B6B6B"/>
<path d="M9.28302 2.70359H8.92632C8.73639 2.70359 8.58228 2.54961 8.58228 2.35954V0.920648C8.58228 0.73071 8.73625 0.576599 8.92632 0.576599H9.28302C9.47296 0.576599 9.62707 0.730578 9.62707 0.920648V2.35954C9.62694 2.54948 9.47296 2.70359 9.28302 2.70359Z" fill="#6B6B6B"/>
</g>
<defs>
<clipPath id="clip0_69_56">
<rect width="12" height="12" fill="white"/>
</clipPath>
</defs>
</svg>
