<svg width="30" height="30" viewBox="0 0 30 30" fill="none" xmlns="http://www.w3.org/2000/svg">
<rect width="29.7578" height="29.7578" rx="14.8789" fill="#F3F2FF"/>
<path d="M14.8789 24.7578C14.2728 24.7578 13.7812 24.2665 13.7812 23.6602V6.09766C13.7812 5.49153 14.2728 5 14.8789 5C15.4853 5 15.9766 5.49153 15.9766 6.09766V23.6602C15.9766 24.2665 15.4853 24.7578 14.8789 24.7578Z" fill="#5B56B6"/>
<path d="M23.6602 15.9766H6.09766C5.49153 15.9766 5 15.4853 5 14.8789C5 14.2728 5.49153 13.7812 6.09766 13.7812H23.6602C24.2665 13.7812 24.7578 14.2728 24.7578 14.8789C24.7578 15.4853 24.2665 15.9766 23.6602 15.9766Z" fill="#5B56B6"/>
</svg>
