<svg width="1081" height="1080" viewBox="0 0 1081 1080" fill="none" xmlns="http://www.w3.org/2000/svg">
<g clip-path="url(#clip0_34_15)">
<mask id="mask0_34_15" style="mask-type:luminance" maskUnits="userSpaceOnUse" x="0" y="0" width="1081" height="1081">
<path d="M1081 0H0V1081H1081V0Z" fill="white"/>
</mask>
<g mask="url(#mask0_34_15)">
<path d="M534.014 1023.77C825.073 1023.77 1061.39 1051.12 1061.39 1084.82C1061.39 1118.51 825.073 1145.86 534.014 1145.86C242.955 1145.86 6.63745 1118.51 6.63745 1084.82C6.63745 1051.12 242.955 1023.77 534.014 1023.77Z" fill="#5A64FF"/>
<path d="M958.738 953.928C960.935 956.564 964.929 958.234 969.444 958.049C973.958 957.86 977.835 955.861 979.862 953.048C977.663 950.411 973.671 948.742 969.157 948.927C964.639 949.116 960.763 951.119 958.738 953.928Z" fill="#9F8EC2"/>
<path d="M910.08 1061.88C913.082 1038.29 914.469 1014.45 914.118 990.664C914.035 978.765 913.462 966.883 912.642 955.034C911.85 943.189 910.596 931.39 909.159 919.631C906.225 896.118 902.076 872.827 896.935 849.844C894.352 838.353 891.5 826.944 888.379 815.638C885.244 804.327 881.894 793.107 878.032 782.073L876.814 782.648C880.526 793.65 883.754 804.911 886.749 816.217C889.737 827.532 892.46 838.941 894.91 850.428C899.783 873.403 903.663 896.648 906.325 920.075C907.626 931.793 908.747 943.539 909.406 955.318C910.091 967.093 910.531 978.889 910.485 990.684C910.578 1014.28 908.944 1037.85 905.723 1061.09L910.08 1061.88Z" fill="#9F8EC2"/>
<path d="M871.999 734.795C877.853 738.847 882.518 747.422 883.815 757.922C885.112 768.418 882.711 778.153 878.068 783.911C872.217 779.86 867.549 771.285 866.252 760.785C864.955 750.289 867.359 740.553 871.999 734.795Z" fill="#9F8EC2"/>
<path d="M906.49 770.968C907.207 777.043 904.935 784.503 900.002 790.545C895.068 796.587 888.727 799.676 883.399 799.252C882.686 793.177 884.961 785.712 889.895 779.671C894.824 773.625 901.166 770.54 906.49 770.968Z" fill="#9F8EC2"/>
<path d="M882.425 799.277C877.942 802.608 871.092 803.427 864.231 800.872C857.363 798.322 852.239 793.054 850.308 787.337C854.79 784.01 861.637 783.191 868.502 785.745C875.366 788.295 880.493 793.564 882.425 799.277Z" fill="#9F8EC2"/>
<path d="M889.114 824.986C884.631 828.317 877.781 829.136 870.916 826.582C864.055 824.032 858.928 818.763 856.997 813.051C861.479 809.719 868.326 808.901 875.191 811.451C882.055 814.001 887.179 819.273 889.114 824.986Z" fill="#9F8EC2"/>
<path d="M896.125 851.674C891.643 855.006 884.796 855.82 877.932 853.27C871.067 850.72 865.94 845.447 864.009 839.735C868.494 836.407 875.341 835.585 882.202 838.135C889.067 840.689 894.194 845.957 896.125 851.674Z" fill="#9F8EC2"/>
<path d="M900.826 876.52C896.344 879.852 889.497 880.666 882.632 878.12C875.768 875.566 870.641 870.297 868.709 864.58C873.192 861.253 880.038 860.435 886.903 862.985C893.768 865.535 898.895 870.807 900.826 876.52Z" fill="#9F8EC2"/>
<path d="M898.877 871.49C903.355 874.821 910.202 875.636 917.063 873.086C923.928 870.536 929.058 865.263 930.993 859.55C926.507 856.223 919.664 855.401 912.799 857.955C905.938 860.505 900.804 865.777 898.877 871.49Z" fill="#9F8EC2"/>
<path d="M912.785 794.613C913.498 800.687 911.223 808.148 906.293 814.19C901.359 820.236 895.025 823.32 889.697 822.897C888.981 816.822 891.249 809.357 896.182 803.315C901.116 797.27 907.457 794.185 912.785 794.613Z" fill="#9F8EC2"/>
<path d="M919.994 821.474C920.707 827.548 918.435 835.009 913.502 841.055C908.568 847.097 902.23 850.181 896.906 849.758C896.186 843.683 898.458 836.222 903.391 830.177C908.325 824.135 914.67 821.046 919.994 821.474Z" fill="#9F8EC2"/>
<path d="M777.911 844.312C786.885 849.992 795.298 856.692 803.463 863.762C811.614 870.857 819.396 878.511 826.844 886.568C834.286 894.629 841.369 903.134 848.073 912.026C854.744 920.951 860.992 930.291 866.843 939.957C878.548 959.287 888.3 980.164 896.154 1001.95C903.821 1023.83 909.518 1046.62 913.122 1069.87L908.776 1070.71C905.537 1047.75 900.227 1025.17 892.947 1003.43C885.481 981.776 876.108 960.945 864.765 941.577C859.097 931.9 853.028 922.518 846.518 913.54C839.986 904.59 833.061 896.011 825.762 887.855C818.464 879.712 810.822 871.963 802.8 864.753C794.771 857.576 786.452 850.728 777.62 844.933L777.911 844.312Z" fill="#9F8EC2"/>
<path d="M744.788 817.772C745.268 825.599 749.804 834.273 757.356 840.376C764.909 846.476 773.55 848.45 780.128 846.324C779.652 838.501 775.112 829.827 767.56 823.723C760.007 817.624 751.366 815.646 744.788 817.772Z" fill="#9F8EC2"/>
<path d="M795.649 811.142C790.604 816.435 787.505 825.903 788.036 836.486C788.562 847.072 792.589 856.071 798.128 860.669C803.173 855.372 806.272 845.904 805.742 835.318C805.212 824.735 801.188 815.74 795.649 811.142Z" fill="#9F8EC2"/>
<path d="M825.673 828.445C819.582 832.007 814.398 840.187 812.452 850.552C810.51 860.916 812.302 870.82 816.573 876.944C822.663 873.382 827.848 865.201 829.793 854.837C831.735 844.473 829.944 834.569 825.673 828.445Z" fill="#9F8EC2"/>
<path d="M845.926 849.832C839.836 853.394 834.651 861.574 832.706 871.938C830.76 882.303 832.555 892.207 836.826 898.331C842.917 894.769 848.101 886.592 850.047 876.224C851.992 865.86 850.197 855.956 845.926 849.832Z" fill="#9F8EC2"/>
<path d="M869.243 871.819C862.561 873.472 855.725 879.86 851.534 889.307C847.345 898.754 846.869 908.859 849.635 916.032C856.317 914.379 863.153 907.992 867.341 898.544C871.533 889.097 872.006 878.996 869.243 871.819Z" fill="#9F8EC2"/>
<path d="M885.667 899.342C879.569 899.046 872.403 902.793 866.929 909.879C861.454 916.958 859.061 925.566 860.043 932.484C866.141 932.78 873.306 929.033 878.781 921.946C884.255 914.864 886.649 906.256 885.667 899.342Z" fill="#9F8EC2"/>
<path d="M897.58 916.649C891.482 916.353 884.316 920.1 878.842 927.182C873.367 934.269 870.974 942.873 871.956 949.79C878.053 950.087 885.219 946.336 890.694 939.257C896.168 932.171 898.561 923.563 897.58 916.649Z" fill="#9F8EC2"/>
<path d="M904.383 942.173C899.156 941.918 893.015 945.135 888.325 951.205C883.632 957.276 881.579 964.654 882.421 970.581C887.652 970.84 893.789 967.62 898.482 961.553C903.172 955.479 905.225 948.104 904.383 942.173Z" fill="#9F8EC2"/>
<path d="M910.983 968.792C907.178 966.324 901.521 966.028 895.982 968.483C890.436 970.935 886.416 975.512 885.036 980.275C888.845 982.743 894.495 983.039 900.041 980.583C905.587 978.132 909.604 973.554 910.983 968.792Z" fill="#9F8EC2"/>
<path d="M913.652 990.73C911.316 987.736 907.081 985.856 902.323 986.095C897.569 986.329 893.495 988.624 891.389 991.836C893.728 994.826 897.96 996.706 902.717 996.471C907.475 996.237 911.546 993.938 913.652 990.73Z" fill="#9F8EC2"/>
<path d="M757.345 876.059C763.157 880.189 771.938 881.036 780.666 877.573C789.393 874.106 795.842 867.217 798.189 859.847C792.378 855.713 783.596 854.866 774.869 858.329C766.137 861.796 759.688 868.689 757.345 876.059Z" fill="#9F8EC2"/>
<path d="M775.779 893.477C781.59 897.607 790.372 898.454 799.099 894.991C807.831 891.524 814.28 884.626 816.623 877.26C810.811 873.127 802.03 872.28 793.302 875.747C784.575 879.214 778.126 886.107 775.779 893.477Z" fill="#9F8EC2"/>
<path d="M795.43 914.946C801.242 919.076 810.023 919.923 818.751 916.46C827.479 912.993 833.928 906.104 836.274 898.734C830.463 894.6 821.682 893.753 812.954 897.216C804.226 900.683 797.774 907.576 795.43 914.946Z" fill="#9F8EC2"/>
<path d="M817.608 929.239C822.334 932.599 829.478 933.286 836.575 930.472C843.676 927.651 848.922 922.041 850.828 916.045C846.102 912.688 838.958 912.002 831.864 914.819C824.763 917.636 819.518 923.246 817.608 929.239Z" fill="#9F8EC2"/>
<path d="M834.221 942.881C838.087 945.748 843.884 946.401 849.62 944.131C855.356 941.853 859.563 937.218 861.057 932.22C857.194 929.354 851.39 928.696 845.658 930.97C839.922 933.249 835.715 937.884 834.221 942.881Z" fill="#9F8EC2"/>
<path d="M844.146 960.426C848.008 963.293 853.809 963.951 859.545 961.677C865.277 959.398 869.487 954.763 870.981 949.766C867.115 946.899 861.315 946.241 855.578 948.515C849.846 950.794 845.64 955.429 844.146 960.426Z" fill="#9F8EC2"/>
<path d="M855.02 976.302C858.151 979.362 863.4 980.842 869.028 979.798C874.657 978.749 879.232 975.438 881.36 971.399C878.229 968.335 872.98 966.859 867.352 967.908C861.723 968.956 857.148 972.263 855.02 976.302Z" fill="#9F8EC2"/>
<path d="M865.531 996.294C869.057 997.446 873.747 996.406 877.896 993.156C882.045 989.903 884.596 985.264 884.943 981.077C881.418 979.925 876.728 980.962 872.579 984.211C868.434 987.464 865.883 992.103 865.531 996.294Z" fill="#9F8EC2"/>
<path d="M877.24 1008.23C880.035 1008.52 883.431 1006.98 886.143 1003.86C888.863 1000.74 890.199 996.833 889.945 993.629C887.15 993.337 883.754 994.884 881.041 998.005C878.322 1001.12 876.986 1005.03 877.24 1008.23Z" fill="#9F8EC2"/>
<path d="M885.001 1011.36C886.835 1011.68 888.999 1010.84 890.661 1008.93C892.317 1007.02 893.055 1004.53 892.768 1002.43C890.937 1002.1 888.777 1002.95 887.114 1004.86C885.456 1006.77 884.717 1009.25 885.001 1011.36Z" fill="#9F8EC2"/>
<path d="M887.508 1017.26C889.343 1017.58 891.5 1016.74 893.162 1014.83C894.824 1012.92 895.555 1010.44 895.276 1008.33C893.438 1008.01 891.277 1008.86 889.615 1010.76C887.956 1012.67 887.222 1015.15 887.508 1017.26Z" fill="#9F8EC2"/>
<path d="M977.544 824.521C971.135 832.582 965.485 841.351 960.15 850.354C954.829 859.378 949.986 868.755 945.532 878.379C941.089 888.011 937.08 897.911 933.505 908.016C929.961 918.138 926.898 928.478 924.268 938.97C919.009 959.957 915.863 981.632 914.623 1003.45C913.57 1025.29 914.487 1047.27 917.361 1068.92L921.395 1068.16C918.278 1046.88 917.07 1025.24 917.823 1003.65C918.758 982.08 921.577 960.578 926.507 939.681C928.972 929.239 931.878 918.919 935.257 908.806C938.675 898.713 942.53 888.805 946.818 879.148C951.114 869.495 955.815 860.073 960.988 850.996C966.176 841.939 971.704 833.084 977.956 824.974L977.544 824.521Z" fill="#C8BADB"/>
<path d="M999.743 789.875C1001.35 796.912 999.622 806.088 994.573 814.034C989.522 821.975 982.438 826.668 976.108 827.055C974.495 820.014 976.233 810.838 981.281 802.896C986.333 794.95 993.409 790.261 999.743 789.875Z" fill="#C8BADB"/>
<path d="M953.339 801.461C959.147 804.381 964.327 811.64 966.613 821.116C968.899 830.596 967.702 839.879 964.026 845.814C958.222 842.889 953.038 835.634 950.756 826.154C948.473 816.674 949.67 807.391 953.339 801.461Z" fill="#C8BADB"/>
<path d="M931.462 826.927C937.739 827.972 944.421 833.38 948.821 841.82C953.221 850.26 954.22 859.575 952.056 866.419C945.783 865.374 939.101 859.958 934.698 851.518C930.302 843.083 929.298 833.771 931.462 826.927Z" fill="#C8BADB"/>
<path d="M919.231 852.649C925.504 853.694 932.182 859.106 936.586 867.542C940.982 875.981 941.981 885.297 939.817 892.141C933.544 891.096 926.865 885.679 922.466 877.24C918.066 868.804 917.067 859.493 919.231 852.649Z" fill="#C8BADB"/>
<path d="M904.459 879.942C910.757 879.107 918.421 882.377 924.558 889.241C930.692 896.105 933.734 904.816 933.171 912.067C926.869 912.898 919.202 909.633 913.068 902.764C906.934 895.9 903.896 887.189 904.459 879.942Z" fill="#C8BADB"/>
<path d="M897.186 909.74C902.467 907.391 909.725 908.234 916.375 912.582C923.025 916.929 927.363 923.67 928.299 930.078C923.018 932.43 915.752 931.587 909.102 927.24C902.456 922.892 898.124 916.151 897.186 909.74Z" fill="#C8BADB"/>
<path d="M891.217 929.016C896.498 926.668 903.76 927.511 910.406 931.854C917.06 936.202 921.395 942.947 922.33 949.354C917.049 951.707 909.786 950.864 903.137 946.517C896.487 942.165 892.152 935.428 891.217 929.016Z" fill="#C8BADB"/>
<path d="M891.872 953.763C896.397 951.752 902.624 952.476 908.321 956.202C914.021 959.929 917.737 965.703 918.536 971.198C914.01 973.213 907.784 972.493 902.087 968.763C896.387 965.037 892.671 959.262 891.872 953.763Z" fill="#C8BADB"/>
<path d="M892.983 979.407C895.684 975.936 900.575 973.744 906.082 974.003C911.588 974.258 916.307 976.906 918.75 980.612C916.049 984.083 911.158 986.276 905.652 986.016C900.145 985.757 895.43 983.117 892.983 979.407Z" fill="#C8BADB"/>
<path d="M896.336 999.589C897.615 996.163 900.84 993.062 905.078 991.639C909.32 990.22 913.491 990.841 916.174 992.942C914.899 996.368 911.671 999.47 907.432 1000.89C903.19 1002.31 899.02 1001.69 896.336 999.589Z" fill="#C8BADB"/>
<path d="M1003.85 845.373C999.819 850.992 992.327 854.734 983.76 854.681C975.19 854.623 967.735 850.774 963.761 845.102C967.795 839.484 975.291 835.741 983.857 835.795C992.427 835.856 999.876 839.702 1003.85 845.373Z" fill="#C8BADB"/>
<path d="M992.18 866.978C988.149 872.596 980.654 876.343 972.091 876.29C963.521 876.232 956.065 872.378 952.092 866.707C956.126 861.089 963.618 857.346 972.188 857.399C980.754 857.461 988.207 861.307 992.18 866.978Z" fill="#C8BADB"/>
<path d="M980.496 892.564C976.466 898.182 968.971 901.933 960.408 901.876C951.841 901.818 944.385 897.969 940.412 892.297C944.443 886.679 951.934 882.932 960.501 882.99C969.071 883.047 976.523 886.893 980.496 892.564Z" fill="#C8BADB"/>
<path d="M964.721 912.701C961.443 917.27 955.349 920.322 948.38 920.273C941.415 920.227 935.353 917.097 932.118 912.483C935.396 907.913 941.494 904.866 948.459 904.911C955.428 904.96 961.493 908.09 964.721 912.701Z" fill="#C8BADB"/>
<path d="M953.679 930.37C951.031 934.211 946.105 936.777 940.477 936.74C934.848 936.703 929.95 934.071 927.338 930.197C929.99 926.351 934.916 923.789 940.545 923.826C946.173 923.863 951.067 926.495 953.679 930.37Z" fill="#C8BADB"/>
<path d="M949.52 949.178C946.868 953.023 941.946 955.585 936.314 955.548C930.689 955.507 925.791 952.875 923.179 949.005C925.83 945.159 930.757 942.597 936.382 942.634C942.01 942.671 946.908 945.303 949.52 949.178Z" fill="#C8BADB"/>
<path d="M944.092 966.842C942.135 970.606 937.908 973.703 932.691 974.71C927.478 975.714 922.602 974.377 919.686 971.56C921.638 967.797 925.866 964.7 931.079 963.692C936.295 962.684 941.172 964.021 944.092 966.842Z" fill="#C8BADB"/>
<path d="M940.05 988.007C937.252 990.224 932.863 990.915 928.374 989.479C923.885 988.044 920.442 984.844 919.048 981.283C921.846 979.066 926.235 978.371 930.721 979.81C935.21 981.246 938.657 984.445 940.05 988.007Z" fill="#C8BADB"/>
<path d="M932.867 1002.5C930.488 1003.71 927.106 1003.52 923.91 1001.71C920.714 999.893 918.521 996.928 917.912 994.02C920.291 992.815 923.677 993.004 926.873 994.818C930.069 996.628 932.261 999.597 932.867 1002.5Z" fill="#C8BADB"/>
<path d="M926.858 1007.9C925.329 1008.82 923.208 1008.81 921.258 1007.7C919.306 1006.6 918.012 1004.67 917.715 1002.72C919.241 1001.81 921.362 1001.81 923.319 1002.92C925.271 1004.03 926.561 1005.96 926.858 1007.9Z" fill="#C8BADB"/>
<path d="M926.196 1013.95C924.666 1014.86 922.545 1014.86 920.596 1013.75C918.64 1012.64 917.343 1010.71 917.045 1008.76C918.575 1007.85 920.7 1007.86 922.652 1008.96C924.608 1010.07 925.898 1012 926.196 1013.95Z" fill="#C8BADB"/>
<path d="M841.695 800.576C848.23 809.645 853.92 819.426 859.251 829.444C864.564 839.476 869.354 849.869 873.708 860.505C878.054 871.14 881.916 882.035 885.305 893.132C888.659 904.245 891.482 915.563 893.836 927.018C898.54 949.93 900.944 973.464 901.281 997.043C901.421 1020.62 899.421 1044.23 895.337 1067.37L891.034 1066.31C895.366 1043.58 897.641 1020.35 897.82 997.055C897.798 973.768 895.749 950.444 891.389 927.647C889.214 916.254 886.563 904.977 883.381 893.885C880.164 882.809 876.463 871.91 872.285 861.249C868.101 850.601 863.472 840.167 858.316 830.082C853.142 820.018 847.593 810.151 841.229 801.037L841.695 800.576Z" fill="#8372B0"/>
<path d="M819.378 761.936C817.321 769.417 818.769 779.399 823.842 788.254C828.919 797.113 836.325 802.592 843.125 803.385C845.185 795.904 843.737 785.926 838.661 777.067C833.587 768.208 826.178 762.73 819.378 761.936Z" fill="#8372B0"/>
<path d="M868.81 777.199C862.425 779.996 856.51 787.497 853.619 797.57C850.724 807.638 851.591 817.706 855.274 824.316C861.655 821.515 867.57 814.013 870.462 803.945C873.357 793.877 872.493 783.808 868.81 777.199Z" fill="#8372B0"/>
<path d="M891.202 805.944C884.402 806.692 876.961 812.117 871.837 820.943C866.714 829.761 865.216 839.731 867.233 847.228C874.033 846.48 881.471 841.059 886.595 832.237C891.722 823.415 893.219 813.441 891.202 805.944Z" fill="#8372B0"/>
<path d="M903.205 834.372C896.401 835.12 888.963 840.549 883.84 849.371C878.716 858.193 877.215 868.159 879.232 875.656C886.036 874.908 893.474 869.487 898.597 860.665C903.721 851.843 905.218 841.869 903.205 834.372Z" fill="#8372B0"/>
<path d="M917.862 864.65C911.115 863.375 902.714 866.431 895.799 873.452C888.877 880.477 885.205 889.673 885.484 897.512C892.231 898.787 900.625 895.735 907.547 888.711C914.465 881.686 918.138 872.489 917.862 864.65Z" fill="#8372B0"/>
<path d="M924.333 897.175C918.754 894.329 910.893 894.798 903.538 899.079C896.179 903.361 891.202 910.361 889.902 917.204C895.48 920.05 903.341 919.582 910.696 915.3C918.056 911.023 923.036 904.023 924.333 897.175Z" fill="#8372B0"/>
<path d="M929.882 918.286C924.304 915.44 916.44 915.917 909.081 920.199C901.725 924.476 896.745 931.476 895.452 938.324C901.023 941.17 908.891 940.693 916.246 936.411C923.605 932.134 928.585 925.134 929.882 918.286Z" fill="#8372B0"/>
<path d="M928.048 944.904C923.268 942.461 916.533 942.868 910.223 946.533C903.921 950.206 899.65 956.202 898.54 962.071C903.323 964.514 910.059 964.111 916.364 960.439C922.67 956.77 926.933 950.773 928.048 944.904Z" fill="#8372B0"/>
<path d="M925.68 972.44C922.928 968.545 917.758 965.888 911.818 965.839C905.877 965.781 900.672 968.344 897.87 972.193C900.621 976.092 905.784 978.745 911.725 978.798C917.672 978.852 922.878 976.294 925.68 972.44Z" fill="#8372B0"/>
<path d="M921.144 993.975C919.926 990.207 916.586 986.679 912.09 984.889C907.59 983.104 903.068 983.524 900.084 985.626C901.302 989.393 904.638 992.926 909.134 994.711C913.634 996.492 918.159 996.076 921.144 993.975Z" fill="#8372B0"/>
<path d="M812.417 821.445C816.501 827.733 824.401 832.225 833.627 832.677C842.856 833.134 851.057 829.432 855.596 823.567C851.512 817.275 843.616 812.792 834.386 812.335C825.161 811.883 816.956 815.58 812.417 821.445Z" fill="#8372B0"/>
<path d="M823.996 845.415C828.08 851.707 835.977 856.194 845.206 856.647C854.432 857.103 862.637 853.402 867.176 847.537C863.092 841.244 855.195 836.757 845.966 836.305C836.737 835.848 828.536 839.55 823.996 845.415Z" fill="#8372B0"/>
<path d="M835.407 873.67C839.492 879.963 847.392 884.45 856.618 884.902C865.843 885.359 874.048 881.657 878.587 875.792C874.503 869.499 866.607 865.016 857.377 864.56C848.151 864.107 839.947 867.805 835.407 873.67Z" fill="#8372B0"/>
<path d="M851.473 896.299C854.794 901.415 861.218 905.071 868.72 905.442C876.226 905.812 882.897 902.805 886.591 898.03C883.27 892.914 876.846 889.262 869.34 888.891C861.838 888.521 855.163 891.528 851.473 896.299Z" fill="#8372B0"/>
<path d="M862.562 915.991C865.238 920.285 870.422 923.345 876.484 923.641C882.546 923.945 887.942 921.404 890.93 917.385C888.25 913.092 883.066 910.032 877.004 909.735C870.942 909.435 865.546 911.973 862.562 915.991Z" fill="#8372B0"/>
<path d="M866.18 936.49C868.86 940.783 874.041 943.847 880.107 944.144C886.169 944.444 891.561 941.906 894.549 937.892C891.869 933.594 886.688 930.534 880.622 930.234C874.56 929.934 869.165 932.471 866.18 936.49Z" fill="#8372B0"/>
<path d="M871.221 955.84C873.156 960.011 877.559 963.601 883.13 964.996C888.701 966.394 894.011 965.247 897.282 962.388C895.348 958.222 890.944 954.631 885.373 953.233C879.805 951.835 874.492 952.982 871.221 955.84Z" fill="#8372B0"/>
<path d="M874.603 978.877C877.513 981.435 882.213 982.442 887.111 981.167C892.009 979.888 895.867 976.647 897.526 972.901C894.617 970.342 889.923 969.331 885.026 970.606C880.128 971.885 876.269 975.126 874.603 978.877Z" fill="#8372B0"/>
<path d="M881.676 994.908C884.18 996.36 887.835 996.352 891.357 994.592C894.882 992.836 897.376 989.771 898.164 986.683C895.659 985.231 892.005 985.239 888.483 986.999C884.958 988.76 882.464 991.82 881.676 994.908Z" fill="#8372B0"/>
<path d="M887.899 1001.09C889.5 1002.17 891.786 1002.29 893.947 1001.21C896.096 1000.14 897.572 998.137 897.977 996.06C896.379 994.987 894.094 994.863 891.94 995.937C889.787 997.014 888.307 999.013 887.899 1001.09Z" fill="#8372B0"/>
<path d="M888.34 1007.64C889.945 1008.72 892.227 1008.83 894.38 1007.76C896.533 1006.69 898.013 1004.68 898.422 1002.61C896.817 1001.53 894.534 1001.41 892.381 1002.48C890.224 1003.56 888.748 1005.56 888.34 1007.64Z" fill="#8372B0"/>
<path d="M936.643 989.566C946.291 973.332 956.459 957.473 967.308 942.248L967.129 942.075C956.004 957.058 945.553 972.687 935.593 988.727C925.665 1004.79 916.293 1021.33 907.866 1038.54C905.831 1042.71 903.853 1046.92 901.936 1051.18C902.685 1051.66 903.437 1052.14 904.179 1052.64C906.021 1048.33 907.93 1044.05 909.897 1039.82C917.969 1022.53 927.019 1005.82 936.643 989.566Z" fill="#9F8EC2"/>
<path d="M978.067 921.543C974.51 921.918 970.819 924.644 968.49 929.095C966.162 933.536 965.796 938.562 967.179 942.346C970.737 941.972 974.434 939.249 976.767 934.803C979.092 930.353 979.454 925.327 978.067 921.543Z" fill="#9F8EC2"/>
<path d="M951.494 931.032C950.043 934.273 949.967 939.155 951.594 943.987C953.224 948.828 956.137 952.377 959.111 953.661C960.562 950.416 960.637 945.538 959.007 940.705C957.38 935.864 954.467 932.311 951.494 931.032Z" fill="#9F8EC2"/>
<path d="M950.598 966.74C953.017 969.104 957.133 970.309 961.608 969.598C966.087 968.891 969.77 966.46 971.536 963.425C969.121 961.06 965.005 959.855 960.526 960.566C956.048 961.274 952.368 963.712 950.598 966.74Z" fill="#9F8EC2"/>
<path d="M939.921 982.566C942.34 984.931 946.456 986.136 950.931 985.424C955.41 984.717 959.093 982.286 960.859 979.251C958.444 976.886 954.328 975.681 949.849 976.392C945.371 977.1 941.691 979.539 939.921 982.566Z" fill="#9F8EC2"/>
<path d="M932.666 995.172C935.084 997.536 939.201 998.742 943.676 998.034C948.154 997.323 951.841 994.888 953.611 991.853C951.193 989.488 947.072 988.287 942.594 988.994C938.115 989.702 934.436 992.145 932.666 995.172Z" fill="#9F8EC2"/>
<path d="M924.626 1009.09C927.045 1011.45 931.158 1012.66 935.636 1011.95C940.111 1011.24 943.794 1008.81 945.564 1005.77C943.146 1003.41 939.029 1002.2 934.554 1002.91C930.076 1003.62 926.393 1006.06 924.626 1009.09Z" fill="#9F8EC2"/>
<path d="M942.196 944.608C940.745 947.849 940.67 952.727 942.297 957.56C943.927 962.4 946.843 965.958 949.817 967.241C951.268 963.996 951.347 959.114 949.717 954.278C948.086 949.437 945.174 945.891 942.196 944.608Z" fill="#9F8EC2"/>
<path d="M933.315 958.58C931.864 961.825 931.788 966.698 933.415 971.531C935.042 976.372 937.958 979.929 940.932 981.213C942.383 977.968 942.458 973.086 940.831 968.249C939.201 963.408 936.288 959.863 933.315 958.58Z" fill="#9F8EC2"/>
<path d="M924.856 972.662C923.405 975.907 923.329 980.785 924.956 985.622C926.586 990.462 929.499 994.012 932.473 995.295C933.924 992.05 933.999 987.172 932.372 982.335C930.746 977.499 927.829 973.945 924.856 972.662Z" fill="#9F8EC2"/>
<path d="M916.662 986.469C915.214 989.71 915.135 994.592 916.766 999.424C918.392 1004.27 921.312 1007.81 924.286 1009.1C925.737 1005.85 925.812 1000.97 924.182 996.142C922.552 991.301 919.639 987.748 916.662 986.469Z" fill="#9F8EC2"/>
<path d="M943.017 1026.74H878.949C868.308 1032.98 861.555 1042.26 861.555 1052.64C861.555 1063.71 869.254 1073.55 881.16 1079.76H940.806C952.712 1073.55 960.411 1063.71 960.411 1052.64C960.411 1042.26 953.658 1032.98 943.017 1026.74Z" fill="#F4E24D"/>
<path d="M936.99 1032.55C943.307 1031.71 951.766 1037.17 953.948 1048.16C956.932 1069.84 938.012 1076.22 927.689 1070.7C936.686 1068.11 946.521 1063.38 946.811 1052.7C947.312 1047.12 944.421 1041.73 944.375 1041.57C943.97 1040.91 943.167 1039.28 941.662 1037.4C940.333 1035.57 938.714 1034.04 936.99 1032.55Z" fill="#F8ED8F"/>
<path d="M946.008 1028.66H875.241V1023.56H946.008V1028.66Z" fill="#609CC9"/>
<path d="M415.484 807.774C370.105 802.775 291.318 808.703 272.563 801.322C253.771 793.925 238.154 753.414 224.314 732.838C204.274 703.04 196.982 707.311 175.756 700.952L207.652 902.268L331.761 956.859L457.642 951.776C459.704 951.639 464.593 912.996 464.488 908.348C463.848 880.035 468.108 813.571 415.484 807.774Z" fill="#8F4116"/>
<path d="M347.184 1124.37H355.609V944.552H340.626L347.184 1124.37Z" fill="#403936"/>
<path d="M428.589 1108.71H437.014V928.892H422.031L428.589 1108.71Z" fill="#403936"/>
<path d="M156.245 1122.87H165.3L171.228 954.399H156.245V1122.87Z" fill="#403936"/>
<path d="M247.161 1116.69L256.211 1116.58L260.544 969.198L245.561 969.377L247.161 1116.69Z" fill="#403936"/>
<path d="M220.112 898.139C224.073 869.306 190.576 692.417 175.756 687.186C168.621 684.668 134.222 685.859 102.913 687.58C73.4351 689.201 51.7842 715.867 56.2854 745.041L77.0392 879.358C86.1045 938.026 347.478 897.289 347.478 897.289L220.112 898.139Z" fill="#60280A"/>
<path d="M345.505 985.099L444.909 961.665C452.375 959.955 457.616 953.46 457.353 946.236L456.697 928.163C456.068 910.882 438.808 898.937 421.055 903.49L323.005 928.682L345.505 985.099Z" fill="#5F2607"/>
<path d="M345.511 985.099L168.805 983.909C124.454 981.71 87.7569 948.644 80.9737 904.755L54.2183 731.663C50.6142 708.328 73.1307 688.807 95.3586 696.782C97.7613 697.642 99.4191 698.628 99.9909 699.756C110.588 720.762 127.024 794.612 152.101 816.147C181.826 841.675 261.347 828.376 316.977 823.523C316.977 823.523 347.667 819.006 352.798 845.583C357.126 868.058 346.539 958.921 345.511 985.099Z" fill="#8F4117"/>
<path d="M345.511 985.094C322.585 985.955 176.616 990.388 157.625 987.418C115.813 980.971 82.1593 948.712 75.6804 903.879C75.6226 903.459 51.2333 738.551 51.6215 726.438C52.655 704.226 74.8462 688.262 95.3587 696.776C76.2889 690.612 51.5638 705.784 57.2506 734.517C90.06 914.586 83.4919 910.2 95.8728 932.774C110.567 960.007 140.208 979.465 175.452 979.397C195.723 979.953 257.029 980.567 345.511 985.094Z" fill="#8F4117"/>
<path d="M95.3586 696.776C99.8179 697.957 99.97 697.904 104.975 708.187C115.252 730.278 137.784 795.262 154.163 808.278L156.502 810.476C180.052 830.726 256.053 820.9 288.905 817.658C289.267 817.621 315.807 815.287 315.456 815.318C339.179 813.508 357.734 823.424 360.315 846.89C363.384 876.09 348.868 962.714 345.511 985.094C343.496 913.406 352.939 851.496 341.623 838.522C332.5 827.127 310.902 833.071 305.818 833.04L290.667 834.74C172.802 847.425 146.225 838.884 124.407 782.798C110.698 747.271 102.509 702.201 98.5693 698.738C97.6512 697.936 96.5128 697.322 95.3586 696.776Z" fill="#B7470B"/>
<path d="M505.677 761.238C505.677 761.238 488.226 790.098 483.858 798.343C479.491 806.589 469.796 832.782 467.612 843.449C465.428 854.117 470.517 871.227 462.271 873.833C454.026 876.439 447.971 853.641 446.998 836.422C446.025 819.209 440.201 811.195 439.229 802.711C438.262 794.221 451.121 789.615 458.155 787.676C465.183 785.737 478.593 747.393 478.593 747.393L505.677 761.238Z" fill="#FDBF39"/>
<path d="M446.678 836.571C447.678 854.287 453.91 877.738 462.401 875.051C470.878 872.377 465.639 854.784 467.884 843.803C469.258 837.082 473.531 824.393 477.667 813.603C470.633 807.263 461.666 808.616 457.407 805.63C453.645 802.997 453.754 794.119 455.386 787.24C448.005 789.588 437.813 794.187 438.698 801.888C439.691 810.623 445.685 818.855 446.678 836.571Z" fill="#FFFEFF"/>
<path d="M367.46 546.24C367.46 546.24 379.101 550.437 383.305 563.044C383.305 563.044 465.108 573.569 506.5 576.868C547.884 580.181 589.595 591.509 577.628 641.296C565.668 691.096 520.399 779.036 520.399 779.036L475.776 749.945C475.776 749.945 485.158 734.426 486.45 721.16C487.743 707.907 490.008 696.913 496.152 685.925C502.295 674.931 503.588 657.78 505.207 642.908L380.393 650.017L292.454 583.263L367.46 546.24Z" fill="#4E3B60"/>
<path d="M526.379 689.477C514.575 670.72 505.847 666.196 504.438 650.113H504.431C503.05 663.053 501.316 676.652 496.145 685.919C490.002 696.906 487.736 707.9 486.443 721.153C485.151 734.413 475.776 749.945 475.776 749.945L520.399 779.036C520.399 779.036 531.604 757.258 544.34 729.242C537.904 717.799 534.441 702.287 526.379 689.477Z" fill="#2F223D"/>
<path d="M468.231 645.024C460.584 641.051 450.053 636.839 443.773 633.853C434.072 629.254 426.799 620.518 411.763 615.912C387.693 608.538 384.605 606.694 366.174 596.271C347.744 585.842 337.716 588.202 337.716 588.202L342.682 621.389L380.4 650.024L468.231 645.024Z" fill="#251931"/>
<path d="M527.911 859.91C529.856 867.614 564.046 851.894 564.046 851.894L556.638 831.042C556.638 831.042 524.157 845.043 527.911 859.91Z" fill="#1A1123"/>
<path d="M571.402 827.888C571.402 827.888 581.795 845.957 586.867 851.916C591.932 857.865 613.837 859.623 622.88 858.231C631.924 856.831 651.385 852.124 654.403 858.728C657.423 865.324 623.552 881.605 616.162 885.529C608.765 889.444 601.196 894.373 594.044 897.747C586.894 901.112 581.946 912.322 574.546 902.683C567.138 893.034 568.414 873.872 565.191 870.177C561.959 866.48 539.024 839.954 539.024 839.954C539.024 839.954 564.338 826.5 571.402 827.888Z" fill="#FDBF39"/>
<path d="M594.036 897.746C601.186 894.381 608.756 889.443 616.153 885.528C623.551 881.605 657.409 865.327 654.395 858.728C651.375 852.132 631.924 856.831 622.885 858.228C615.708 859.332 600.432 858.455 591.9 855.068C587.394 861.197 583.401 875.737 577.128 878.536C573.814 880.011 570.714 882.171 568.282 884.117C569.297 890.594 570.825 897.832 574.542 902.678C581.946 912.322 586.885 901.111 594.036 897.746Z" fill="#FFFEFF"/>
<path d="M294.791 597.108C294.791 597.108 284.816 639.805 321.971 663.006C371.519 693.951 436.865 723.107 436.865 723.107C436.865 723.107 440.339 743.51 455.049 758.052C469.767 772.595 472.702 775.562 478.28 787.074C483.867 798.588 483.958 803.316 497.474 812.416C510.981 821.516 513.562 830.644 527.915 859.915C527.915 859.915 528.614 847.581 574.577 831.741C574.577 831.741 517.01 727.66 499.251 702.754C481.491 677.857 463.917 662.43 432.546 640.676C401.165 618.921 369.994 595.215 369.994 595.215L362.223 576.438L294.791 597.108Z" fill="#4E3B60"/>
<path d="M278.835 657.313C280.647 653.651 291.343 643.839 297.452 638.644" stroke="#FFFEFF" stroke-width="6.47693" stroke-miterlimit="10"/>
<path d="M284.355 680.672C282.231 679.993 281.225 677.579 282.247 675.596C287.361 665.705 300.962 639.43 303.96 634.089C307.678 627.475 313.243 627.443 324.885 627.569C336.527 627.689 339.634 630.697 339.18 634.139C338.722 637.595 332.857 640.07 326.365 641.829C319.867 643.589 316.975 645.795 312.692 654.177C308.406 662.554 297.994 685.07 297.994 685.07L284.355 680.672Z" fill="#4C6DB2"/>
<path d="M333.765 639.25C330.368 641.144 324.42 645.34 324.42 645.34L311.656 665.257L305.616 663.561L309.689 648.555C311.111 643.301 315.071 639.121 320.242 637.415C322.808 636.563 325.569 635.658 327.854 634.902C334.058 632.863 338.139 636.811 333.765 639.25Z" fill="#3E496C"/>
<path d="M220.278 596.338L213.249 632.25C213.249 632.25 280.172 659.179 287.268 658.18C294.37 657.18 302.671 649.775 313.537 648.234C324.407 646.687 326.053 651.377 323.031 652.227C320.009 653.07 313.343 653.98 311.858 654.515C311.858 654.515 318.302 653.65 318.231 657.776C318.159 661.895 311.719 671.661 307.382 672.78C303.044 673.892 300.057 673.819 295.55 675.203C291.036 676.582 286.213 676.423 284.437 672.221C284.437 672.221 231.431 675.315 196.896 671.667C162.365 668.005 158.713 645.699 160.334 626.878C161.961 608.057 163.627 589.452 163.627 589.452L220.278 596.338Z" fill="#F27273"/>
<path d="M192.498 621.201C200.929 617.559 209.492 615.594 217.442 610.822L220.278 596.338L163.626 589.452C163.626 589.452 161.956 608.064 160.334 626.878C160.274 627.557 160.227 628.232 160.182 628.92C172.468 633.967 183.359 625.141 192.498 621.201Z" fill="#D04F4E"/>
<path d="M250.39 692.469C246.921 693.071 243.972 692.182 241.626 689.826C239.45 687.64 238.793 684.559 239.671 680.652C242.004 670.248 254.515 657.356 266.433 653.071C282.043 647.46 294.456 642.248 302.96 635.927C303.363 635.173 303.702 634.546 303.961 634.089C304.599 632.953 305.293 632.03 306.063 631.251C297.927 639.059 284.12 645.031 265.896 651.574C253.537 656.02 240.558 669.443 238.119 680.298C237.127 684.708 237.952 688.395 240.498 690.947C243.192 693.655 246.708 694.722 250.661 694.04C250.81 694.016 250.951 693.987 251.092 693.958C259.132 692.312 268.538 683.552 274.014 672.703L272.203 672.773C266.788 683.04 257.824 691.209 250.39 692.469Z" fill="#FFFEFF"/>
<path d="M348.206 503.744C364.149 509.342 392.044 456.781 386.236 420.379C382.825 399.012 340.811 426.74 340.811 426.74C340.811 426.74 334.122 498.802 348.206 503.744Z" fill="#8BA4CB"/>
<path d="M175.546 376.02C179.39 374.805 182.867 372.583 185.069 369.128C187.484 365.324 188.964 361.396 193.311 356.166C200.056 348.058 208.717 352.659 216.781 345.428C224.839 338.199 235.564 339.601 241.199 349.167C246.844 358.729 237.99 369.03 229.749 373.224C221.502 377.421 224.269 382.915 213 388.624C201.724 394.329 193.986 393.848 191.243 396.976C191.243 396.976 206.47 434.93 197.614 445.225C197.614 445.225 191.291 435.583 183.65 428.509C176.006 421.443 171.796 417.886 166.724 406.388C162.194 396.11 165.186 379.292 175.546 376.02Z" fill="#37383B"/>
<path d="M222.576 375.64C222.576 375.64 227.043 390.125 234.565 400.592C242.086 411.06 256.983 434.349 240.106 441.71L246.912 451.738C246.912 451.738 257.01 462.073 249.361 469.656C240.982 477.959 232.036 477.194 224.097 475.962C219.339 475.217 215.142 472.455 212.587 468.374L196.839 443.206C196.839 443.206 184.499 452.775 179.424 442.338C173.678 430.524 186.017 424.707 194.658 428.397C193.119 415.844 185.227 396.984 185.227 396.984C185.227 396.984 192.834 390.554 201.775 389.315C210.71 388.077 220.181 381.374 222.576 375.64Z" fill="#F27273"/>
<path d="M240.111 441.708C233.065 445.245 220.567 448.757 209.905 442.955C208.768 442.341 207.614 443.685 208.397 444.707C215.961 454.606 226.027 460.91 246.917 451.736L240.111 441.708Z" fill="#D04F4E"/>
<path d="M193.783 409.209L184.181 424.213L191.571 430.631C191.571 430.631 196.238 424.392 205.738 425.839L193.783 409.209Z" fill="#4C6DB2"/>
<path d="M242.506 405.955L208.394 425.037C205.26 426.793 201.302 425.672 199.548 422.544L194.5 413.519C192.744 410.385 193.868 406.419 196.996 404.665L231.11 385.589C236.733 382.436 243.846 384.445 246.992 390.07C250.139 395.695 248.13 402.808 242.506 405.955Z" fill="#3E496C"/>
<path d="M246.174 403.894L217.97 419.677C214.374 421.685 209.832 420.404 207.819 416.81L203.705 409.457C201.697 405.861 202.979 401.319 206.573 399.306L234.779 383.528C238.373 381.515 242.914 382.796 244.928 386.39L249.042 393.743C251.05 397.339 249.768 401.881 246.174 403.894Z" fill="#4C6DB2"/>
<path d="M237.657 396.641L219.182 406.976C218.44 407.391 217.5 407.124 217.083 406.378C216.666 405.631 216.932 404.69 217.679 404.273L236.148 393.941C236.893 393.518 237.838 393.795 238.253 394.537C238.672 395.289 238.404 396.224 237.657 396.641Z" fill="#FDBF39"/>
<path d="M176.019 377.237C175.254 377.475 174.533 377.814 173.847 378.196C167.982 390.329 168.826 408.336 182.074 426.053L185.572 423.449C174.551 408.703 170.349 387.321 181.04 374.894C179.496 375.89 177.802 376.671 176.019 377.237Z" fill="#3E496C"/>
<path d="M181.551 418.104C178.595 419.854 176.301 424.219 176.301 424.219L177.626 426.667C177.604 430.557 178.888 435.164 181.488 439.558C183.642 443.197 186.353 446.101 189.157 448.049L191.307 452.032C191.307 452.032 199.84 450.117 200.323 449.838C205.535 446.75 205.564 437.148 200.386 428.384C195.202 419.622 186.771 415.019 181.551 418.104Z" fill="#3E496C"/>
<path d="M193.817 432.26C198.268 439.794 197.652 448.397 192.434 451.487C187.219 454.57 179.376 450.965 174.926 443.437C170.472 435.91 171.081 427.303 176.301 424.219C181.514 421.131 189.363 424.733 193.817 432.26Z" fill="#4C6DB2"/>
<path d="M187.681 438.522L181.348 442.27C180.436 442.806 179.259 442.507 178.723 441.594C178.181 440.684 178.483 439.513 179.4 438.974L185.732 435.227C186.637 434.687 187.814 434.986 188.356 435.897C188.892 436.809 188.593 437.986 187.681 438.522Z" fill="#FDBF39"/>
<mask id="mask1_34_15" style="mask-type:alpha" maskUnits="userSpaceOnUse" x="173" y="-172" width="1119" height="596">
<path d="M396.87 -171.752L325.525 -85.2735C325.525 -85.2735 273.786 -19.5469 288.831 111.756C300.722 215.531 219.589 271.45 219.589 271.45C219.589 271.45 132.57 321.175 197.97 403.33C197.429 403.6 197.159 426.571 210.941 423.598C212.563 423.598 248.235 402.249 248.235 402.249C248.235 402.249 250.668 390.088 246.884 388.466C243.101 386.845 312.554 331.985 396.87 344.957C481.187 357.928 664.738 435.89 686.358 314.82C707.977 193.75 990.245 610.851 1204.28 273.586C1418.31 -63.6802 1170.85 -119.865 1170.85 -119.865L396.87 -171.752Z" fill="#181818"/>
</mask>
<g mask="url(#mask1_34_15)">
<mask id="mask2_34_15" style="mask-type:luminance" maskUnits="userSpaceOnUse" x="0" y="0" width="1082" height="1081">
<path d="M0.000244141 0H1081V1081H0.000244141V0Z" fill="white"/>
</mask>
<g mask="url(#mask2_34_15)">
<path d="M1081 3.05176e-05V1081H0.000244141V3.05176e-05H1081Z" fill="#20274A"/>
<g opacity="0.27">
<path d="M236.789 244.916C232.803 246.346 228.41 244.273 226.977 240.276C225.547 236.289 227.616 231.887 231.603 230.457C235.6 229.024 240.005 231.103 241.435 235.09C242.869 239.087 240.786 243.482 236.789 244.916Z" fill="#FFFEFF"/>
<path d="M175.321 406.346C172.784 407.256 169.999 405.933 169.086 403.386C168.176 400.849 169.489 398.067 172.026 397.157C174.573 396.244 177.364 397.553 178.274 400.09C179.188 402.637 177.868 405.432 175.321 406.346Z" fill="#FFFEFF"/>
<path d="M375.203 322.787C372.303 323.827 369.103 322.333 368.063 319.434C367.019 316.524 368.537 313.327 371.436 312.287C374.336 311.246 377.54 312.751 378.583 315.66C379.623 318.559 378.102 321.747 375.203 322.787Z" fill="#FFFEFF"/>
<path d="M266.144 351.535C264.974 348.273 266.676 344.667 269.938 343.497C273.2 342.326 276.807 344.029 277.977 347.291C279.147 350.553 277.444 354.16 274.182 355.33C270.92 356.5 267.314 354.797 266.144 351.535Z" fill="#FFFEFF"/>
</g>
<g opacity="0.27">
<path d="M236.789 244.916C232.803 246.346 228.41 244.273 226.977 240.276C225.547 236.289 227.616 231.887 231.603 230.457C235.6 229.024 240.005 231.103 241.435 235.09C242.869 239.087 240.786 243.482 236.789 244.916Z" fill="#FFFEFF"/>
<path d="M175.321 406.346C172.784 407.256 169.999 405.933 169.086 403.386C168.176 400.849 169.489 398.067 172.026 397.157C174.573 396.244 177.364 397.553 178.274 400.09C179.188 402.637 177.868 405.432 175.321 406.346Z" fill="#FFFEFF"/>
<path d="M375.203 322.787C372.303 323.827 369.103 322.333 368.063 319.434C367.019 316.524 368.537 313.327 371.436 312.287C374.336 311.246 377.54 312.751 378.583 315.66C379.623 318.559 378.102 321.747 375.203 322.787Z" fill="#FFFEFF"/>
<path d="M266.144 351.535C264.974 348.273 266.676 344.667 269.938 343.497C273.2 342.326 276.807 344.029 277.977 347.291C279.147 350.553 277.444 354.16 274.182 355.33C270.92 356.5 267.314 354.797 266.144 351.535Z" fill="#FFFEFF"/>
</g>
<g opacity="0.42">
<path d="M390.22 270.795C389.066 275.69 384.147 278.707 379.268 277.556C374.388 276.405 371.364 271.516 372.518 266.621C373.669 261.742 378.562 258.703 383.442 259.854C388.321 261.005 391.371 265.916 390.22 270.795Z" fill="#FFFEFF"/>
<path d="M551.497 387.497C550.346 392.377 545.439 395.411 540.559 394.261C535.679 393.11 532.644 388.203 533.795 383.323C534.946 378.443 539.853 375.408 544.733 376.559C549.613 377.709 552.648 382.617 551.497 387.497Z" fill="#FFFEFF"/>
<path d="M511.587 81.5996C510.18 87.5637 504.204 91.2593 498.226 89.8495C492.261 88.4432 488.551 82.4637 489.958 76.4996C491.367 70.5208 497.361 66.8141 503.326 68.2204C509.304 69.6302 512.996 75.6208 511.587 81.5996Z" fill="#FFFEFF"/>
<path d="M659.021 283.378C658.126 287.174 654.327 289.511 650.517 288.612C646.721 287.717 644.381 283.933 645.276 280.137C646.174 276.327 649.962 273.972 653.758 274.867C657.568 275.765 659.919 279.568 659.021 283.378Z" fill="#FFFEFF"/>
<path d="M664.081 129.994C659.201 128.843 656.166 123.935 657.317 119.056C658.468 114.176 663.375 111.141 668.255 112.292C673.135 113.442 676.17 118.35 675.019 123.23C673.868 128.109 668.961 131.144 664.081 129.994Z" fill="#FFFEFF"/>
<path d="M846.275 202.004C840.296 200.594 836.59 194.6 837.999 188.621C839.406 182.657 845.396 178.965 851.375 180.375C857.339 181.781 861.035 187.757 859.628 193.721C858.219 199.7 852.239 203.41 846.275 202.004Z" fill="#FFFEFF"/>
<path d="M952.828 405.543C948.491 404.521 945.818 400.178 946.844 395.826C947.867 391.488 952.195 388.812 956.532 389.835C960.87 390.857 963.576 395.192 962.553 399.53C961.527 403.882 957.166 406.566 952.828 405.543Z" fill="#FFFEFF"/>
<path d="M926.152 4.03059C925.001 8.91033 920.094 11.9451 915.214 10.7945C910.334 9.64391 907.299 4.73633 908.45 -0.143409C909.6 -5.02314 914.508 -8.05795 919.388 -6.90734C924.268 -5.75672 927.302 -0.849144 926.152 4.03059Z" fill="#FFFEFF"/>
<path d="M1087.43 120.717C1086.28 125.597 1081.37 128.632 1076.48 127.478C1071.6 126.327 1068.58 121.423 1069.73 116.543C1070.88 111.664 1075.77 108.625 1080.65 109.776C1085.55 110.93 1088.58 115.838 1087.43 120.717Z" fill="#FFFEFF"/>
</g>
<g opacity="0.2">
<path d="M329.553 288.295C225.336 288.399 140.636 203.867 140.532 99.6498C140.428 -4.56732 224.96 -89.2678 329.177 -89.3717C433.394 -89.4756 518.095 -4.94368 518.199 99.2734C518.302 203.491 433.771 288.191 329.553 288.295Z" fill="white"/>
</g>
<g opacity="0.2">
<path d="M327.81 321.995C205.205 322.117 105.561 222.671 105.439 100.066C105.316 -22.5386 204.763 -122.183 327.367 -122.306C449.972 -122.428 549.617 -22.9814 549.739 99.6234C549.861 222.228 450.415 321.873 327.81 321.995Z" fill="white"/>
</g>
<path d="M330.95 261.611C241.459 261.701 168.726 189.113 168.637 99.6218C168.548 10.1306 241.136 -62.6018 330.627 -62.6909C420.118 -62.7801 492.85 9.80739 492.939 99.2986C493.029 188.79 420.441 261.522 330.95 261.611Z" fill="url(#paint0_linear_34_15)"/>
<path d="M279.42 166.279C254.697 166.304 234.601 144.041 234.573 116.597C234.546 89.1525 254.598 66.8499 279.321 66.8252C304.045 66.8006 324.141 89.0632 324.168 116.507C324.196 143.952 304.144 166.254 279.42 166.279Z" fill="#DB902D"/>
<path d="M441.056 103.674C431.51 103.684 423.751 94.9723 423.741 84.2333C423.73 73.4942 431.472 64.7673 441.017 64.7577C450.563 64.7482 458.322 73.4598 458.333 84.1988C458.344 94.9378 450.602 103.665 441.056 103.674Z" fill="#DB902D"/>
<path d="M234.539 60.6394C230.363 60.6436 226.969 57.2561 226.964 53.0798C226.96 48.9036 230.348 45.5094 234.524 45.5052C238.7 45.501 242.094 48.8885 242.099 53.0648C242.103 57.2411 238.715 60.6353 234.539 60.6394Z" fill="#DB902D"/>
<path d="M343.866 205.387C336.707 205.394 330.89 202.009 330.886 197.833C330.882 193.657 336.691 190.26 343.851 190.253C351.01 190.246 356.826 193.631 356.831 197.807C356.835 201.983 351.025 205.38 343.866 205.387Z" fill="#DB902D"/>
<g opacity="0.15">
<path d="M1070.14 297.578C1079.26 371.041 1027.02 438.093 953.553 447.213C880.09 456.333 813.038 404.092 803.918 330.629C794.797 257.165 847.039 190.114 920.502 180.993C993.965 171.873 1061.02 224.114 1070.14 297.578Z" fill="white"/>
</g>
<path d="M1044.22 299.401C1051.58 358.655 1009.44 412.738 950.186 420.094C890.932 427.45 836.85 385.313 829.493 326.059C822.137 266.805 864.274 212.723 923.528 205.366C982.782 198.01 1036.86 240.147 1044.22 299.401Z" fill="url(#paint1_linear_34_15)"/>
<path d="M984.84 348.412C986.994 365.763 968.562 382.357 943.705 385.443C918.849 388.529 896.918 376.946 894.764 359.595C892.61 342.244 911.042 325.65 935.899 322.564C960.755 319.478 982.686 331.061 984.84 348.412Z" fill="#7C26D0"/>
<path d="M986.824 232.632C987.743 240.033 979.881 247.11 969.28 248.426C958.678 249.743 949.324 244.802 948.405 237.402C947.486 230.001 955.348 222.924 965.95 221.607C976.552 220.291 985.906 225.231 986.824 232.632Z" fill="#7C26D0"/>
<path d="M904.473 262.463C905.318 269.272 902.159 275.277 897.422 275.865C892.686 276.453 888.154 271.403 887.309 264.594C886.463 257.785 889.623 251.78 894.359 251.192C899.096 250.604 903.628 255.654 904.473 262.463Z" fill="#7C26D0"/>
<path d="M847.114 309.344C847.555 312.896 845.99 316.019 843.622 316.313C841.253 316.607 838.972 313.961 838.531 310.409C838.09 306.857 839.655 303.734 842.023 303.44C844.392 303.146 846.673 305.791 847.114 309.344Z" fill="#7C26D0"/>
</g>
</g>
<path d="M366.869 427.791L389.85 431.7C389.85 431.7 463.017 369.615 468.236 364.232C473.448 358.855 483.879 348.102 489.742 345.338C495.612 342.561 515.494 337.671 520.219 336.21C524.944 334.743 520.054 339.303 516.632 340.448C513.21 341.587 505.556 345.167 505.556 345.167C505.556 345.167 507.579 348.266 506.729 351.359C507.833 355.433 506.729 358.533 506.729 358.533C506.729 358.533 507.669 361.468 504.898 364.403C502.134 367.338 493.98 370.918 489.091 368.799C489.091 368.799 444.439 433.167 430.099 453.871C415.759 474.562 397.345 490.938 361.65 487.928C325.961 484.917 311.621 482.469 311.621 482.469C311.621 482.469 346.336 426.495 366.869 427.791Z" fill="#F27273"/>
<path d="M355.279 476.146C347.708 461.34 351.294 439.669 359.689 432.838L353.729 432.646C334.211 446.04 311.621 482.469 311.621 482.469C307.417 481.248 326.661 484.869 347.872 486.947C353.729 487.523 357.96 481.392 355.279 476.146Z" fill="#D04F4E"/>
<path d="M492.595 347.656C496.504 346.929 502.011 347.786 502.992 349.981C503.965 352.182 504.089 360.487 502.992 360.974C501.888 361.468 499.069 357.675 499.069 353.156C499.069 353.156 496.758 360.618 488.693 359.513" stroke="#D04F4E" stroke-width="1.58601" stroke-linecap="round" stroke-linejoin="round"/>
<path d="M181.786 488.443C181.786 488.443 191.168 481.835 209.464 470.365C211.694 475.02 226.951 474.639 227.933 474.46C240.129 472.237 254.94 462.592 249.269 446.414C251.214 443.859 255.447 442.054 259.075 439.602C278.813 426.272 299.419 422.863 311.986 424.43C316.399 424.982 318.465 420.782 332.205 420.773C345.943 420.758 358.123 410.725 370.045 413.524C370.045 413.524 354.076 428.568 348.706 463.479C343.337 498.396 354.317 502.45 354.317 502.45L335.269 505.626C335.269 505.626 346.371 506.697 353.509 514.468C360.644 522.233 361.302 527.938 370.716 528.833C380.139 529.738 391.975 529.932 390.515 536.244C389.052 542.55 353.362 573.287 328.039 597.946C302.717 622.606 285.662 637.321 278.751 633.746C271.829 630.161 272.482 625.595 263.333 616.5C254.183 607.399 223.296 578.63 223.296 578.63L221.554 594.311C221.151 597.945 219.139 601.206 216.057 603.157C209.055 607.602 195.339 614.489 180.004 612.318C157.838 609.187 150.742 602.712 146.977 597.574C143.522 592.85 152.847 590.652 151.714 582.136C150.582 573.627 149.418 570.698 152.951 562.49C156.482 554.276 159.675 547.136 160.013 534.605C160.344 522.076 163.39 501.891 181.786 488.443Z" fill="#FFFEFF"/>
<path d="M221.774 592.292L151.158 578.206C151.325 579.39 151.518 580.685 151.715 582.143C152.849 590.658 143.514 592.846 146.975 597.568C150.74 602.705 157.83 609.182 180.002 612.312C195.338 614.483 209.057 607.609 216.052 603.166C219.141 601.213 221.146 597.953 221.55 594.319L221.774 592.292Z" fill="#FFFEFF"/>
<path d="M514.677 375.044C513.073 376.074 510.935 375.423 510.184 373.669C506.452 364.912 496.545 341.64 494.66 336.756C492.325 330.704 495.335 327.02 501.759 319.417C508.178 311.811 511.852 311.401 513.873 313.575C515.901 315.759 514.338 320.972 511.961 326.208C509.582 331.448 509.461 334.555 512.651 341.943C515.837 349.329 525.004 368.453 525.004 368.453L514.677 375.044Z" fill="#4C6DB2"/>
<path d="M514.292 319.927C513.69 323.197 513.215 329.402 513.215 329.402L519.388 348.659L514.981 351.716L507.311 340.859C504.623 337.061 504.026 332.175 505.718 327.839C506.554 325.684 507.461 323.372 508.208 321.454C510.243 316.256 515.067 315.717 514.292 319.927Z" fill="#3E496C"/>
</g>
</g>
<defs>
<linearGradient id="paint0_linear_34_15" x1="293.9" y1="-34.5481" x2="434.785" y2="319.882" gradientUnits="userSpaceOnUse">
<stop stop-color="#FF9000"/>
<stop offset="0.5" stop-color="#FFAE3D"/>
<stop offset="1" stop-color="#FFCC7B"/>
</linearGradient>
<linearGradient id="paint1_linear_34_15" x1="851.124" y1="348.085" x2="1074.34" y2="225.89" gradientUnits="userSpaceOnUse">
<stop stop-color="#6C00FF"/>
<stop offset="0.5" stop-color="#9A3DFF"/>
<stop offset="1" stop-color="#C97BFF"/>
</linearGradient>
<clipPath id="clip0_34_15">
<rect width="1081" height="1081" fill="white"/>
</clipPath>
</defs>
</svg>
