<svg width="40" height="62" viewBox="0 0 40 62" fill="none" xmlns="http://www.w3.org/2000/svg">
<g clip-path="url(#clip0_0_11)">
<path d="M25.2992 61.3693C28.6809 60.4359 31.7097 58.6245 34.1237 56.2077C37.7473 52.5799 39.995 47.5747 39.995 42.0649V20.0208C39.995 14.5111 37.7473 9.50586 34.1237 5.87809C30.5002 2.25033 25.5008 0 19.9975 0C14.4992 0 9.49477 2.25033 5.87124 5.87809C2.2477 9.50586 0 14.5161 0 20.0208V42.0599C0 47.5697 2.2477 52.5749 5.87124 56.2026C8.68842 59.0231 12.3321 61.0111 16.3991 61.7578C18.8585 62.2119 23.0314 61.995 25.2992 61.3693ZM19.7707 46.4495C21.8622 46.4495 23.5757 44.7341 23.5757 42.6401V38.7147C23.5757 36.6208 21.8622 34.9053 19.7707 34.9053C17.6792 34.9053 15.9657 36.6208 15.9657 38.7147V42.6401C15.9657 44.7341 17.6742 46.4495 19.7707 46.4495ZM30.7824 52.8625C28.0156 55.6325 24.1955 57.3581 19.9975 57.3581C15.7994 57.3581 11.9844 55.6375 9.21255 52.8625C6.44576 50.0924 4.72219 46.2679 4.72219 42.0649V20.0208C4.72219 15.8179 6.44072 11.9984 9.21255 9.22331C11.9793 6.45329 15.7994 4.7277 19.9975 4.7277C24.1955 4.7277 28.0106 6.44824 30.7824 9.22331C33.5492 11.9933 35.2728 15.8179 35.2728 20.0208V42.0599C35.2728 46.2679 33.5542 50.0874 30.7824 52.8625Z" fill="#F4F4F4"/>
</g>
<defs>
<clipPath id="clip0_0_11">
<rect width="40" height="62" fill="white"/>
</clipPath>
</defs>
</svg>
