<svg width="20" height="20" viewBox="0 0 20 20" fill="none" xmlns="http://www.w3.org/2000/svg">
<g clip-path="url(#clip0_191_378)">
<path d="M19.5533 12.0429C17.7231 11.2849 17.7231 8.69245 19.5533 7.93441C19.813 7.82684 19.9364 7.52893 19.8288 7.26923L18.8697 4.95383C18.7621 4.69413 18.4642 4.57075 18.2045 4.67832C16.3743 5.43636 14.5412 3.60328 15.2995 1.77326C15.407 1.51356 15.2837 1.21565 15.0239 1.10808L12.7083 0.148731C12.4486 0.0411609 12.1507 0.164537 12.0432 0.424243C11.2851 2.25448 8.69267 2.25448 7.93463 0.424243C7.82706 0.164537 7.52915 0.0411609 7.26945 0.148731L4.95383 1.10786C4.69413 1.21543 4.57075 1.51334 4.67832 1.77304C5.43636 3.60328 3.60328 5.43636 1.77304 4.67832C1.51334 4.57075 1.21543 4.69413 1.10786 4.95383L0.148731 7.26923C0.0411609 7.52893 0.164537 7.82684 0.424243 7.93441C2.25448 8.69245 2.25448 11.2849 0.424243 12.0429C0.164537 12.1505 0.0411609 12.4484 0.148731 12.7081L1.10786 15.0235C1.21543 15.2832 1.51334 15.4066 1.77304 15.299C3.60328 14.541 5.43636 16.3741 4.6781 18.2043C4.57053 18.464 4.69391 18.7619 4.95361 18.8695L7.26901 19.8286C7.52871 19.9362 7.82662 19.8128 7.93419 19.5531C8.69223 17.7229 11.2847 17.7229 12.0427 19.5531C12.1503 19.8128 12.4482 19.9362 12.7079 19.8286L15.0233 18.8695C15.283 18.7619 15.4064 18.464 15.2988 18.2043C14.5408 16.3741 16.3738 14.541 18.2041 15.2992C18.4638 15.4068 18.7617 15.2834 18.8693 15.0237L19.8284 12.7083C19.9364 12.4484 19.813 12.1507 19.5533 12.0429ZM9.98878 14.1713C7.67887 14.1713 5.80627 12.2987 5.80627 9.98878C5.80627 7.67887 7.67887 5.80627 9.98878 5.80627C12.2987 5.80627 14.1713 7.67887 14.1713 9.98878C14.1713 12.2987 12.2987 14.1713 9.98878 14.1713Z" fill="#000117"/>
</g>
<defs>
<clipPath id="clip0_191_378">
<rect width="20" height="20" fill="white"/>
</clipPath>
</defs>
</svg>
