<svg width="13" height="15" viewBox="0 0 13 15" fill="none" xmlns="http://www.w3.org/2000/svg">
<path d="M9.73679 14.9009H3.24652C2.47382 14.9009 1.83317 14.2966 1.78789 13.5252L1.14116 2.4793C1.13325 2.34347 1.18166 2.21043 1.27485 2.11148C1.36821 2.01252 1.49811 1.95654 1.63428 1.95654H11.3489C11.4849 1.95654 11.6148 2.01269 11.7083 2.11148C11.8015 2.21043 11.8499 2.34347 11.8422 2.4793L11.1954 13.5254C11.1501 14.2966 10.5095 14.9009 9.73679 14.9009ZM2.15786 2.94427L2.77414 13.4674C2.78863 13.7174 2.99625 13.913 3.24652 13.913H9.73679C9.98706 13.913 10.1944 13.7174 10.209 13.4676L10.8251 2.94427H2.15786Z" fill="#BF2E2E"/>
<path d="M12.3689 2.94419H0.614307C0.341484 2.94419 0.120361 2.72307 0.120361 2.45024C0.120361 2.17742 0.341484 1.9563 0.614307 1.9563H12.3691C12.6419 1.9563 12.863 2.17742 12.863 2.45024C12.863 2.72307 12.6419 2.94419 12.3689 2.94419Z" fill="#BF2E2E"/>
<path d="M8.75204 2.94427H4.23113C3.95831 2.94427 3.73718 2.72315 3.73718 2.45033V1.52961C3.73718 0.731728 4.38639 0.0825195 5.18444 0.0825195H7.79889C8.59695 0.0825195 9.24599 0.731728 9.24599 1.52961V2.45033C9.24599 2.72315 9.02487 2.94427 8.75204 2.94427ZM4.72507 1.95638H8.25794V1.52961C8.2581 1.27639 8.05212 1.07041 7.79873 1.07041H5.18444C4.93121 1.07041 4.72524 1.27639 4.72524 1.52961L4.72507 1.95638Z" fill="#BF2E2E"/>
<path d="M8.68637 12.4297C8.67649 12.4297 8.66694 12.4294 8.6569 12.4289C8.38474 12.4129 8.17679 12.1791 8.19276 11.9068L8.6001 4.95139C8.61607 4.6789 8.84839 4.46848 9.1222 4.48725C9.39436 4.50322 9.60231 4.73686 9.58634 5.00918L9.179 11.9648C9.16369 12.2272 8.94586 12.4297 8.68637 12.4297Z" fill="#BF2E2E"/>
<path d="M4.29666 12.4297C4.03701 12.4297 3.81951 12.2272 3.80403 11.9647L3.39686 5.00913C3.38089 4.7368 3.58867 4.50316 3.861 4.48719C4.13201 4.46892 4.36697 4.67901 4.38294 4.95134L4.79011 11.9067C4.80608 12.1791 4.5983 12.4129 4.32597 12.4288C4.31626 12.4293 4.30654 12.4297 4.29666 12.4297Z" fill="#BF2E2E"/>
<path d="M6.49163 12.4296C6.2188 12.4296 5.99768 12.2085 5.99768 11.9357V4.98027C5.99768 4.70745 6.2188 4.48633 6.49163 4.48633C6.76445 4.48633 6.98557 4.70745 6.98557 4.98027V11.9357C6.98557 12.2085 6.76445 12.4296 6.49163 12.4296Z" fill="#BF2E2E"/>
</svg>
